<svg width="25" height="24" viewBox="0 0 25 24" fill="none" xmlns="http://www.w3.org/2000/svg">
<path d="M11.1 4H4.09998C3.56954 4 3.06083 4.21071 2.68576 4.58579C2.31069 4.96086 2.09998 5.46957 2.09998 6V20C2.09998 20.5304 2.31069 21.0391 2.68576 21.4142C3.06083 21.7893 3.56954 22 4.09998 22H18.1C18.6304 22 19.1391 21.7893 19.5142 21.4142C19.8893 21.0391 20.1 20.5304 20.1 20V13" stroke="black" stroke-width="2" stroke-linecap="round" stroke-linejoin="round"/>
<path d="M18.6 2.49998C18.9978 2.10216 19.5374 1.87866 20.1 1.87866C20.6626 1.87866 21.2022 2.10216 21.6 2.49998C21.9978 2.89781 22.2213 3.43737 22.2213 3.99998C22.2213 4.56259 21.9978 5.10216 21.6 5.49998L12.1 15L8.09998 16L9.09998 12L18.6 2.49998Z" stroke="#005AE2" stroke-width="2" stroke-linecap="round" stroke-linejoin="round"/>
</svg>
