<svg width="24" height="24" viewBox="0 0 24 24" fill="none" xmlns="http://www.w3.org/2000/svg">
<path d="M21.9706 1.4375C22.2831 1.4375 22.5663 1.55469 22.8203 1.78906C23.0742 2.02344 23.2011 2.29688 23.2011 2.60938V21.8281C23.2011 22.1406 23.0742 22.4141 22.8203 22.6484C22.5663 22.8828 22.2831 23 21.9706 23H16.4628V14.6797H19.2753L19.6855 11.3984H16.4628V9.28906C16.4628 8.23438 17.0097 7.70703 18.1035 7.70703H19.8027V4.83594C19.2167 4.71875 18.3769 4.66016 17.2831 4.66016C16.0331 4.66016 15.0273 5.04102 14.2656 5.80273C13.5038 6.56445 13.123 7.62891 13.123 8.99609V11.3984H10.3105V14.6797H13.123V23H2.75189C2.43939 23 2.16595 22.8828 1.93158 22.6484C1.6972 22.4141 1.58002 22.1406 1.58002 21.8281V2.60938C1.58002 2.29688 1.6972 2.02344 1.93158 1.78906C2.16595 1.55469 2.43939 1.4375 2.75189 1.4375H21.9706Z" fill="#141414"/>
</svg>
